<?xml version="1.0" ?><svg viewBox="0 0 96.43 96.43" xmlns="http://www.w3.org/2000/svg"><title/><g data-name="Layer 2" id="Layer_2"><g data-name="Layer 1" id="Layer_1-2"><path d="M58.67,72.67a1.67,1.67,0,0,1,2,.27L80.59,92.86c4,4,9.53,4.92,13.05,1.39l.61-.61c3.52-3.52,2.58-9.08-1.4-13.05l-20-20a1.65,1.65,0,0,1-.23-2,38.37,38.37,0,0,0-5.89-47.22A39.13,39.13,0,0,0,11.44,66.78,38.37,38.37,0,0,0,58.67,72.67Zm-40-13.11a28.91,28.91,0,1,1,40.89,0A28.95,28.95,0,0,1,18.67,59.56Z"/><path d="M57.06,36.79a4,4,0,0,0,3.72-5.61A25.45,25.45,0,0,0,27.45,17.67a4,4,0,1,0,3.15,7.44,17.37,17.37,0,0,1,22.73,9.21A4,4,0,0,0,57.06,36.79Z"/></g></g></svg>